<svg xmlns="http://www.w3.org/2000/svg" width="800" height="800" fill="none" viewBox="0 0 24 24"><path stroke="#000" stroke-linecap="round" stroke-linejoin="round" stroke-width="2" d="m3 8 2.722 2.268a1 1 0 0 0 .64.232h11.276a1 1 0 0 0 .64-.232L21 8M6.5 14h.01m10.99 0h.01M8.16 4.5h7.68a2 2 0 0 1 1.736 1.008l2.897 5.07A4 4 0 0 1 21 12.562V18.5a1 1 0 0 1-1 1h-1a1 1 0 0 1-1-1v-1H6v1a1 1 0 0 1-1 1H4a1 1 0 0 1-1-1v-5.938a4 4 0 0 1 .527-1.984l2.897-5.07A2 2 0 0 1 8.161 4.5M7 14a.5.5 0 1 1-1 0 .5.5 0 0 1 1 0m11 0a.5.5 0 1 1-1 0 .5.5 0 0 1 1 0"/><path d="M119.73 680.271c-18.471-3.625-37.03-18.818-46.015-37.667-4.93-10.344-5.096-13.82-5.78-120.575-.709-110.89.3-130.106 8.043-153.354 3.62-10.867 14.576-33.783 23.755-49.687l4.409-7.64-9.467-7.674c-18.178-14.735-24.456-22.23-26.14-31.212-3.46-18.434 11.937-36.959 30.717-36.959 9.88 0 15.179 2.352 28.076 12.462 4.942 3.874 9.297 6.649 9.677 6.166.381-.482 11.758-20.35 25.281-44.151s28.34-48.21 32.927-54.24c9.863-12.973 25.687-24.33 44.458-31.91l13.583-5.487h293.492l13.583 5.486c18.77 7.58 34.595 18.938 44.458 31.91 4.586 6.031 19.403 30.44 32.927 54.24 13.523 23.802 24.9 43.67 25.28 44.152.381.483 4.736-2.292 9.678-6.166 12.897-10.11 18.195-12.462 28.076-12.462 18.78 0 34.176 18.525 30.718 36.96-1.644 8.764-6.684 14.876-25.693 31.16l-9.02 7.728 14.17 28.94c7.793 15.917 15.58 34.798 17.304 41.958 2.385 9.909 3.134 41.278 3.134 131.36 0 115.542-.119 118.596-5.005 128.995-6.282 13.37-19.69 26.73-33.812 33.688-9.623 4.742-14.461 5.365-41.656 5.365-27.106 0-32.179-.649-42.604-5.447-20.997-9.664-35.054-27.33-38.688-48.621l-1.68-9.838H232.084l-1.68 9.838c-3.14 18.395-15.191 35.382-32.794 46.223-13.343 8.218-52.41 11.458-77.88 6.459zm47.537-83.23c1.152-26.038 5.417-35.09 19.82-42.062 9.409-4.555 15.239-4.683 212.913-4.683s203.504.128 212.914 4.683c14.402 6.972 18.667 16.024 19.819 42.062l.968 21.894h34.939l-.015-101.184c-.008-55.65-1.04-107.453-2.295-115.117-1.993-12.168-11.703-36.299-18.58-46.172-1.85-2.655-4.605-1.358-14.065 6.618-24.086 20.31-10.17 19.169-233.685 19.169s-209.599 1.14-233.685-19.169c-9.46-7.976-12.216-9.273-14.065-6.618-6.877 9.873-16.587 34.004-18.58 46.172-1.255 7.664-2.288 59.467-2.295 115.117l-.014 101.184h34.938zm433.919-289.455 12.592-10.758-30-52.443c-24.256-42.404-31.578-53.37-38.25-57.29-8.058-4.734-11.446-4.846-145.528-4.846s-137.47.112-145.529 4.846c-6.67 3.92-13.992 14.885-38.242 57.278l-29.993 52.43 12.208 10.666 12.207 10.666 188.972.104 188.971.104z" style="fill:red;stroke:#fff;stroke-width:5.58817" transform="scale(.03)"/><path d="M197.65 511.023c-35.284-15.302-38.996-64.56-6.383-84.723 16.208-10.021 30.104-10.68 46.591-2.212 45.453 23.348 29.153 91.078-21.806 90.612-5.574-.05-13.855-1.706-18.402-3.677zm366.864 0c-26.84-11.64-37.388-44.364-22.212-68.91 9.402-15.209 28.015-25.232 44.076-23.737 25.275 2.352 44.95 23.773 44.757 48.728-.266 34.245-35.447 57.438-66.621 43.919z" style="fill:red;stroke:#fff;stroke-width:5.58817" transform="scale(.03)"/></svg>