<svg xmlns="http://www.w3.org/2000/svg" width="800" height="800" fill="none" viewBox="0 0 24 24"><path stroke="#000" stroke-linecap="round" stroke-linejoin="round" stroke-width="2" d="M5 5h4m-3 8.5h4M15 5h4m-5 8.5h4m-2-2v4M6.2 19h11.6c1.12 0 1.68 0 2.108-.218a2 2 0 0 0 .874-.874C21 17.48 21 16.92 21 15.8v-4.6c0-1.12 0-1.68-.218-2.108a2 2 0 0 0-.874-.874C19.48 8 18.92 8 17.8 8H6.2c-1.12 0-1.68 0-2.108.218a2 2 0 0 0-.874.874C3 9.52 3 10.08 3 11.2v4.6c0 1.12 0 1.68.218 2.108a2 2 0 0 0 .874.874C4.52 19 5.08 19 6.2 19"/><path d="M490.418 197.655c-7.368-2.666-13.117-6.755-16.588-11.8-4.672-6.79-5.905-10.825-5.905-19.31 0-12.667 5.588-22.157 16.66-28.292l6.61-3.662h150.943l6.61 3.662c11.11 6.156 16.66 15.622 16.66 28.414 0 12.791-5.55 22.257-16.66 28.413l-6.61 3.662-73.585.28c-58.035.22-74.546-.07-78.135-1.367zm-333.333 0c-7.369-2.666-13.117-6.755-16.588-11.8-4.672-6.79-5.906-10.825-5.906-19.31 0-12.667 5.589-22.157 16.661-28.292l6.61-3.662h150.943l6.61 3.662c11.11 6.156 16.66 15.622 16.66 28.414 0 12.791-5.55 22.257-16.66 28.413l-6.61 3.662-73.585.28c-58.035.22-74.546-.07-78.135-1.367zm-.02 467.047c-24.981-2.693-44-11.63-60.5-28.432-16.403-16.702-23.506-31.242-27.55-56.396-2.342-14.562-2.394-242.9-.059-258.976 3.535-24.335 11.822-41.445 27.826-57.45 15.992-15.991 33.052-24.26 57.45-27.844 16.381-2.406 475.155-2.406 491.537 0 24.397 3.584 41.457 11.853 57.45 27.845 16.007 16.007 24.299 33.13 27.82 57.449 2.332 16.107 2.287 244.449-.052 258.976-4.173 25.93-12.402 42.072-30.057 58.964-12.812 12.26-26.818 19.687-45.656 24.213-8.806 2.116-23.588 2.262-248.985 2.468-131.792.12-243.943-.248-249.224-.817zm488.664-66.395c6.018-2.039 14.905-10.083 17.988-16.281 2.21-4.444 2.32-10.748 2.32-131.745V323.204l-3.213-6.245c-4.022-7.816-11.72-13.796-20.065-15.585-9.034-1.938-476.484-1.938-485.518 0-8.345 1.79-16.043 7.769-20.065 15.585l-3.214 6.244v125.19c0 68.856.438 127.25.974 129.766 1.112 5.224 9.434 15.318 15.001 18.198 2.056 1.063 7.227 2.393 11.492 2.957 4.264.563 113.885.937 243.602.83 190.314-.158 236.786-.512 240.698-1.837z" style="fill:red;stroke:#fff;stroke-width:2.96981" transform="scale(.03)"/><path d="M187.421 479.775c-15.653-7.077-23.556-24.143-18.387-39.706 2.726-8.208 7.848-14.183 16.053-18.728l6.737-3.73h149.685l6.737 3.73c8.205 4.545 13.327 10.52 16.053 18.728 5.17 15.563-2.734 32.629-18.387 39.706-5.485 2.48-7.936 2.56-79.245 2.56-71.31 0-73.76-.08-79.246-2.56zm333.334 66.667c-6.935-3.135-13.168-8.944-16.769-15.624-2.417-4.486-2.758-7.386-3.138-26.73l-.427-21.698-20.336-.028c-17.721-.024-21.064-.356-25.997-2.587-15.653-7.077-23.556-24.143-18.387-39.706 2.728-8.214 7.853-14.188 16.053-18.715 6.583-3.634 7.217-3.73 27.806-4.173l21.069-.453v-19.146c0-13.875.53-20.7 1.922-24.787 6.344-18.62 28.559-27.4 45.695-18.06 14.53 7.918 17.792 15.775 17.792 42.847v19.146l21.069.453c20.589.444 21.223.539 27.806 4.173 8.2 4.527 13.325 10.501 16.053 18.715 5.17 15.563-2.734 32.629-18.387 39.706-4.933 2.23-8.276 2.563-25.997 2.587l-20.336.028-.427 21.698c-.38 19.344-.721 22.244-3.139 26.73C556.683 541.947 545.297 549 533.333 549c-4.264 0-9.09-.981-12.578-2.559z" style="fill:red;stroke:#fff;stroke-width:2.96981" transform="scale(.03)"/></svg>