<?xml version="1.0" encoding="UTF-8" standalone="no"?>
<!-- Uploaded to: SVG Repo, www.svgrepo.com, Generator: SVG Repo Mixer Tools -->

<svg
   width="800px"
   height="800px"
   viewBox="0 0 24 24"
   fill="none"
   version="1.1"
   id="svg1"
   sodipodi:docname="electronic.svg"
   inkscape:version="1.3.2 (091e20ef0f, 2023-11-25, custom)"
   xmlns:inkscape="http://www.inkscape.org/namespaces/inkscape"
   xmlns:sodipodi="http://sodipodi.sourceforge.net/DTD/sodipodi-0.dtd"
   xmlns="http://www.w3.org/2000/svg"
   xmlns:svg="http://www.w3.org/2000/svg">
  <defs
     id="defs1" />
  <sodipodi:namedview
     id="namedview1"
     pagecolor="#ffffff"
     bordercolor="#000000"
     borderopacity="0.25"
     inkscape:showpageshadow="2"
     inkscape:pageopacity="0.0"
     inkscape:pagecheckerboard="0"
     inkscape:deskcolor="#d1d1d1"
     inkscape:zoom="0.75"
     inkscape:cx="400"
     inkscape:cy="400"
     inkscape:window-width="1920"
     inkscape:window-height="1011"
     inkscape:window-x="0"
     inkscape:window-y="0"
     inkscape:window-maximized="1"
     inkscape:current-layer="svg1" />
  <path
     d="M12 16H12.01M12 11V13M14 8V5M11 5H17M6 12H3M3 9V15M21 11V19M6 8V16H8L10 19H18V10L16 8H6Z"
     stroke="#000000"
     stroke-width="2"
     stroke-linecap="round"
     stroke-linejoin="round"
     id="path1" />
  <path
     style="fill:#ff0000;stroke:#f9f9f9;stroke-width:3.148"
     d="m 322.84944,664.17448 c -9.22349,-3.33784 -14.9786,-10.39803 -44.28423,-54.32656 L 249.31336,566 h -26.83532 c -16.87571,0 -28.79882,-0.58828 -32.12579,-1.58507 -6.97875,-2.09088 -17.43475,-11.63672 -20.52455,-18.73794 -2.24333,-5.15579 -2.50937,-10.60407 -2.89775,-59.34366 l -0.42764,-53.66666 H 150.0277 133.55308 l -0.49047,37 c -0.56364,42.51932 -0.97415,44.41033 -11.7424,54.09192 -13.27737,11.93749 -29.382979,11.91957 -42.693245,-0.0475 C 66.681502,512.97109 67.333333,520.11129 67.333333,400 c 0,-120.11129 -0.651831,-112.97109 11.293632,-123.71109 13.310266,-11.96708 29.415875,-11.98499 42.693245,-0.0475 10.76825,9.68159 11.17876,11.5726 11.7424,54.09192 l 0.49047,37 h 16.47462 16.47461 l 0.42764,-53.66666 c 0.38838,-48.73959 0.65442,-54.18787 2.89775,-59.34365 3.0898,-7.10123 13.5458,-16.64707 20.52455,-18.73796 C 194.26772,234.41196 226.53065,234 314.48803,234 h 118.8453 v -17.33333 -17.33334 h -35.51197 c -23.36236,0 -37.30253,-0.53646 -40.74557,-1.56802 -6.84603,-2.05112 -16.82307,-10.93004 -19.9045,-17.7137 -1.50241,-3.30753 -2.44606,-8.4712 -2.44606,-13.38494 0,-4.91375 0.94365,-10.07742 2.44606,-13.38495 3.08143,-6.78366 13.05847,-15.66258 19.9045,-17.7137 7.46085,-2.23532 211.7209,-2.23532 219.18176,0 6.84602,2.05112 16.82306,10.93004 19.90449,17.7137 3.22653,7.10314 3.22653,19.66675 0,26.76989 -3.08143,6.78366 -13.05847,15.66258 -19.90449,17.7137 -3.44304,1.03156 -17.38322,1.56802 -40.74558,1.56802 H 500 V 216.66667 234 h 18.84531 c 10.43714,0 21.29389,0.69925 24.33333,1.56725 4.58923,1.31057 11.98391,8.01664 45.15139,40.94678 32.06702,31.83754 40.11088,40.53885 42,45.43274 2.17861,5.64387 2.33664,16.55808 2.33664,161.38656 0,147.08422 -0.12902,155.6677 -2.42942,161.6295 -2.95094,7.64777 -13.05662,17.1952 -20.58949,19.4521 -7.69723,2.30615 -280.39304,2.07751 -286.79832,-0.24045 z M 566.66667,473.01389 V 345.36113 l -22.98571,-23.0139 -22.98572,-23.0139 H 377.01429 233.33333 V 400 500.66667 h 18.84531 c 10.44591,0 21.14727,0.68968 24.01011,1.54741 9.65665,2.8932 15.26349,9.66144 45.29286,54.67485 l 29.20503,43.77774 h 107.99001 107.99002 z"
     id="path2"
     transform="scale(0.03)" />
  <path
     style="fill:#ff0000;stroke:#f9f9f9;stroke-width:3.148"
     d="m 389.5634,464.30805 c -6.86626,-2.1972 -17.00676,-12.10447 -19.80065,-19.34522 -2.14974,-5.57135 -2.42942,-10.74744 -2.42942,-44.96283 0,-45.02801 0.44858,-47.29379 11.29364,-57.04443 13.33158,-11.98624 29.41448,-11.98624 42.74606,0 10.84506,9.75064 11.29364,12.01642 11.29364,57.04443 0,45.02801 -0.44858,47.29379 -11.29364,57.04443 -9.33643,8.39426 -20.38928,10.91814 -31.80963,7.26362 z"
     id="path3"
     transform="scale(0.03)" />
  <path
     style="fill:#ff0000;stroke:#f9f9f9;stroke-width:3.148"
     d="m 389.62009,564.32431 c -6.17298,-1.97801 -16.21994,-11.23163 -19.11546,-17.60603 -3.22654,-7.10314 -3.22654,-19.66675 0,-26.76989 3.08142,-6.78366 13.05846,-15.66258 19.90449,-17.7137 15.56313,-4.66283 32.32601,2.88335 39.5907,17.82261 3.43326,7.06022 3.43326,19.49185 0,26.55207 -7.29629,15.00425 -24.83145,22.69708 -40.37973,17.71494 z"
     id="path4"
     transform="scale(0.03)" />
  <path
     style="fill:#ff0000;stroke:#f9f9f9;stroke-width:3.148"
     d="m 689.5634,664.30805 c -6.86626,-2.1972 -17.00676,-12.10446 -19.80065,-19.34522 -2.2944,-5.94624 -2.42942,-14.00274 -2.42942,-144.96283 0,-157.78528 -0.83764,-146.13737 11.29364,-157.04443 13.33158,-11.98624 29.41448,-11.98624 42.74606,0 12.13128,10.90706 11.29364,-0.74085 11.29364,157.04443 0,157.78528 0.83764,146.13737 -11.29364,157.04443 -9.33643,8.39426 -20.38928,10.91814 -31.80963,7.26362 z"
     id="path5"
     transform="scale(0.03)" />
</svg>
