<svg xmlns="http://www.w3.org/2000/svg" width="800" height="800" viewBox="-5 0 20 20"><path fill-rule="evenodd" d="M6.821 20v-9h2.733L10 7H6.821V5.052C6.821 4.022 6.848 3 8.287 3h1.458V.14c0-.043-1.253-.14-2.52-.14C4.58 0 2.924 1.657 2.924 4.7V7H0v4h2.923v9z"/><path d="M316.95 618.644V438.983H201.694V283.051H315.88l2.199-66.95c2.428-73.934 6.67-98.105 22.833-130.124 20.975-41.55 57.577-69.478 103.936-79.301C469.41 1.47 514.824.383 560.17 3.913l27.967 2.177v109.929l-40.317 1.66c-69.19 2.85-74.79 10.545-75.919 104.355l-.714 59.322 63.7.923 63.698.922-1.804 10.942c-2.247 13.624-15.424 133.008-15.424 139.74 0 4.076-9.561 5.094-55.085 5.864l-55.085.931-.877 178.814-.877 178.813H316.95z" style="fill:#f4f4f4;stroke:#f9f9f9;stroke-width:8.00339;fill-opacity:1" transform="translate(-5)scale(.025)"/></svg>