<?xml version="1.0" encoding="iso-8859-1"?>
<!-- Uploaded to: SVG Repo, www.svgrepo.com, Generator: SVG Repo Mixer Tools -->
<svg version="1.1" id="Layer_1" xmlns="http://www.w3.org/2000/svg" xmlns:xlink="http://www.w3.org/1999/xlink" 
	 viewBox="0 0 512 512" xml:space="preserve">
<path style="fill:#B0B0B0;" d="M151.455,419.081L92.92,360.546l190.131-190.131l58.535,58.535L151.455,419.081z"/>
<path style="fill:#8B8B8B;" d="M151.455,419.081l-29.301-29.301l190.131-190.131l29.301,29.301L151.455,419.081z"/>
<path style="fill:#D7D7D7;" d="M382.098,312.754L199.246,129.902L319.33,9.819c13.092-13.092,34.316-13.092,47.408,0
	l135.444,135.444c13.092,13.092,13.092,34.316,0,47.408L382.098,312.754z"/>
<path style="fill:#B0B0B0;" d="M382.098,312.754l-91.425-91.425L434.459,77.541l67.721,67.721c13.092,13.092,13.092,34.318,0,47.41
	L382.098,312.754z"/>
<path style="fill:#D7D7D7;" d="M24.891,487.11c-33.188-33.188-33.188-87.189,0-120.376s87.189-33.188,120.377,0
	s33.188,87.189,0,120.376C112.08,520.297,58.078,520.297,24.891,487.11z M119.541,392.458c-19.003-19.003-49.923-19.003-68.926,0
	c-19.003,19.003-19.003,49.923,0,68.926c19.003,19.003,49.923,19.003,68.926,0C138.544,442.381,138.544,411.461,119.541,392.458z"/>
<circle style="fill:#8B8B8B;" cx="320.889" cy="191.11" r="18.826"/>
<path style="fill:#6F6F6F;" d="M334.205,204.418c-7.352,7.352-19.271,7.352-26.623,0l26.623-26.623
	C341.556,185.147,341.556,197.067,334.205,204.418z"/>
<g>
	
		<rect x="233.271" y="131.241" transform="matrix(-0.7071 -0.7071 0.7071 -0.7071 513.2751 511.4684)" style="fill:#8B8B8B;" width="258.59" height="36.381"/>
	<path style="fill:#8B8B8B;" d="M319.328,9.821l-23.385,23.385l182.852,182.852l23.385-23.385c0.79-0.79,1.529-1.611,2.224-2.455
		L321.784,7.597C320.938,8.29,320.118,9.031,319.328,9.821z"/>
</g>
<g>
	
		<rect x="343.587" y="176.931" transform="matrix(-0.7071 -0.7071 0.7071 -0.7071 558.9711 621.7769)" style="fill:#6F6F6F;" width="129.345" height="36.381"/>
	<path style="fill:#6F6F6F;" d="M387.368,124.631l91.425,91.425l23.385-23.385c0.79-0.79,1.529-1.611,2.224-2.455l-91.308-91.309
		C412.249,99.601,387.368,124.631,387.368,124.631z"/>
</g>
<path style="fill:#B0B0B0;" d="M145.267,366.733l-25.725,25.725c19.003,19.003,19.003,49.923,0,68.926
	c-19.003,19.003-49.923,19.003-68.926,0l-25.725,25.725c33.188,33.188,87.189,33.188,120.377,0
	C178.455,453.922,178.455,399.921,145.267,366.733z"/>
</svg>
